<svg width="30" height="30" viewBox="0 0 30 30" fill="none" xmlns="http://www.w3.org/2000/svg">
<path d="M15 3.75C8.7975 3.75 3.75 8.7975 3.75 15C3.75 21.2025 8.7975 26.25 15 26.25C21.2025 26.25 26.25 21.2025 26.25 15C26.25 8.7975 21.2025 3.75 15 3.75ZM15 5.625C20.1891 5.625 24.375 9.81094 24.375 15C24.3773 17.2443 23.5725 19.4147 22.1075 21.1149C20.6425 22.8152 18.615 23.932 16.395 24.2616V17.7338H19.065L19.4841 15.0216H16.395V13.5403C16.395 12.4153 16.7653 11.415 17.8181 11.415H19.5103V9.04875C19.2131 9.00844 18.5841 8.92125 17.3953 8.92125C14.9128 8.92125 13.4578 10.2319 13.4578 13.2188V15.0216H10.9059V17.7338H13.4578V24.2381C11.2685 23.8778 9.27866 22.7508 7.84377 21.0585C6.40889 19.3661 5.62246 17.2188 5.625 15C5.625 9.81094 9.81094 5.625 15 5.625Z" fill="white"/>
</svg>
