<svg width="50" height="50" viewBox="0 0 50 50" fill="none" xmlns="http://www.w3.org/2000/svg">
<path d="M25 6.25C14.6625 6.25 6.25 14.6625 6.25 25C6.25 35.3375 14.6625 43.75 25 43.75C35.3375 43.75 43.75 35.3375 43.75 25C43.75 14.6625 35.3375 6.25 25 6.25ZM25 9.375C33.6484 9.375 40.625 16.3516 40.625 25C40.6288 28.7406 39.2875 32.3578 36.8458 35.1916C34.4042 38.0253 31.025 39.8867 27.325 40.4359V29.5563H31.775L32.4734 25.0359H27.325V22.5672C27.325 20.6922 27.9422 19.025 29.6969 19.025H32.5172V15.0813C32.0219 15.0141 30.9734 14.8687 28.9922 14.8687C24.8547 14.8687 22.4297 17.0531 22.4297 22.0313V25.0359H18.1766V29.5563H22.4297V40.3969C18.7809 39.7963 15.4644 37.918 13.073 35.0974C10.6815 32.2769 9.37076 28.6979 9.375 25C9.375 16.3516 16.3516 9.375 25 9.375Z" fill="#C6809D"/>
</svg>
