<svg width="30" height="30" viewBox="0 0 30 30" fill="none" xmlns="http://www.w3.org/2000/svg">
<path d="M15 8.9912C11.6748 8.9912 8.9912 11.6748 8.9912 15C8.9912 18.3252 11.6748 21.0088 15 21.0088C18.3252 21.0088 21.0088 18.3252 21.0088 15C21.0088 11.6748 18.3252 8.9912 15 8.9912ZM15 18.9053C12.8496 18.9053 11.0947 17.1504 11.0947 15C11.0947 12.8496 12.8496 11.0947 15 11.0947C17.1504 11.0947 18.9053 12.8496 18.9053 15C18.9053 17.1504 17.1504 18.9053 15 18.9053ZM21.2549 7.34471C20.4785 7.34471 19.8516 7.97167 19.8516 8.74803C19.8516 9.5244 20.4785 10.1514 21.2549 10.1514C22.0312 10.1514 22.6582 9.52733 22.6582 8.74803C22.6584 8.56368 22.6223 8.3811 22.5518 8.21073C22.4814 8.04037 22.378 7.88558 22.2477 7.75522C22.1173 7.62486 21.9625 7.5215 21.7922 7.45106C21.6218 7.38062 21.4392 7.34448 21.2549 7.34471V7.34471ZM26.7129 15C26.7129 13.3828 26.7275 11.7803 26.6367 10.166C26.5459 8.291 26.1182 6.62694 24.7471 5.25585C23.373 3.88182 21.7119 3.45702 19.8369 3.3662C18.2197 3.27538 16.6172 3.29003 15.0029 3.29003C13.3857 3.29003 11.7832 3.27538 10.1689 3.3662C8.29393 3.45702 6.62987 3.88475 5.25878 5.25585C3.88475 6.62987 3.45995 8.291 3.36913 10.166C3.27831 11.7832 3.29296 13.3857 3.29296 15C3.29296 16.6142 3.27831 18.2197 3.36913 19.834C3.45995 21.709 3.88768 23.373 5.25878 24.7441C6.6328 26.1182 8.29393 26.543 10.1689 26.6338C11.7861 26.7246 13.3887 26.7099 15.0029 26.7099C16.6201 26.7099 18.2226 26.7246 19.8369 26.6338C21.7119 26.543 23.376 26.1152 24.7471 24.7441C26.1211 23.3701 26.5459 21.709 26.6367 19.834C26.7305 18.2197 26.7129 16.6172 26.7129 15V15ZM24.1348 21.9082C23.9209 22.4414 23.6631 22.8398 23.25 23.25C22.8369 23.6631 22.4414 23.9209 21.9082 24.1348C20.3672 24.7471 16.708 24.6094 15 24.6094C13.292 24.6094 9.62987 24.7471 8.08885 24.1377C7.55565 23.9238 7.15721 23.666 6.74706 23.2529C6.33397 22.8398 6.07616 22.4443 5.86229 21.9111C5.25292 20.3672 5.39061 16.708 5.39061 15C5.39061 13.292 5.25292 9.62987 5.86229 8.08885C6.07616 7.55565 6.33397 7.15721 6.74706 6.74706C7.16014 6.3369 7.55565 6.07616 8.08885 5.86229C9.62987 5.25292 13.292 5.39061 15 5.39061C16.708 5.39061 20.3701 5.25292 21.9111 5.86229C22.4443 6.07616 22.8428 6.33397 23.2529 6.74706C23.666 7.16014 23.9238 7.55565 24.1377 8.08885C24.7471 9.62987 24.6094 13.292 24.6094 15C24.6094 16.708 24.7471 20.3672 24.1348 21.9082Z" fill="white"/>
</svg>
