<svg width="50" height="50" viewBox="0 0 50 50" fill="none" xmlns="http://www.w3.org/2000/svg">
<path d="M38.75 10C40.4076 10 41.9973 10.6585 43.1694 11.8306C44.3415 13.0027 45 14.5924 45 16.25V36.25C45 37.9076 44.3415 39.4973 43.1694 40.6694C41.9973 41.8415 40.4076 42.5 38.75 42.5H11.25C9.5924 42.5 8.00269 41.8415 6.83058 40.6694C5.65848 39.4973 5 37.9076 5 36.25V16.25C5 14.5924 5.65848 13.0027 6.83058 11.8306C8.00269 10.6585 9.5924 10 11.25 10H38.75ZM42.5 19.9025L25.635 29.8275C25.4756 29.9211 25.2973 29.9782 25.1132 29.9946C24.929 30.011 24.7435 29.9864 24.57 29.9225L24.365 29.8275L7.5 19.9075V36.25C7.5 37.2446 7.89509 38.1984 8.59835 38.9017C9.30161 39.6049 10.2554 40 11.25 40H38.75C39.7446 40 40.6984 39.6049 41.4016 38.9017C42.1049 38.1984 42.5 37.2446 42.5 36.25V19.9025ZM38.75 12.5H11.25C10.2554 12.5 9.30161 12.8951 8.59835 13.5983C7.89509 14.3016 7.5 15.2554 7.5 16.25V17.005L25 27.3L42.5 17V16.25C42.5 15.2554 42.1049 14.3016 41.4016 13.5983C40.6984 12.8951 39.7446 12.5 38.75 12.5V12.5Z" fill="#C6809D"/>
</svg>
