<svg width="30" height="30" viewBox="0 0 30 30" fill="none" xmlns="http://www.w3.org/2000/svg">
<path d="M15.0117 3.04688C12.6476 3.04687 10.3366 3.74791 8.37092 5.06134C6.40524 6.37477 4.87318 8.24159 3.96848 10.4257C3.06377 12.6099 2.82706 15.0133 3.28828 17.3319C3.74949 19.6506 4.88791 21.7805 6.55959 23.4521C8.23126 25.1238 10.3611 26.2622 12.6798 26.7234C14.9985 27.1847 17.4018 26.948 19.586 26.0432C21.7701 25.1385 23.637 23.6065 24.9504 21.6408C26.2638 19.6751 26.9648 17.3641 26.9648 15C26.9617 11.8308 25.7014 8.79226 23.4604 6.55129C21.2195 4.31032 18.1809 3.04998 15.0117 3.04688V3.04688ZM15.0117 25.5469C12.9257 25.5469 10.8866 24.9283 9.15219 23.7694C7.41777 22.6105 6.06595 20.9633 5.26768 19.0361C4.46941 17.1089 4.26055 14.9883 4.6675 12.9424C5.07446 10.8965 6.07895 9.01724 7.55396 7.54223C9.02896 6.06723 10.9082 5.06273 12.9541 4.65578C15 4.24883 17.1206 4.45769 19.0478 5.25596C20.975 6.05423 22.6222 7.40605 23.7811 9.14047C24.94 10.8749 25.5586 12.914 25.5586 15C25.5555 17.7963 24.4433 20.4771 22.4661 22.4543C20.4888 24.4316 17.808 25.5438 15.0117 25.5469ZM21.6211 13.0195C21.5337 13.1839 21.3856 13.3077 21.2084 13.3646C21.0311 13.4215 20.8386 13.407 20.6719 13.3242C18.9169 12.4235 16.9726 11.9537 15 11.9537C13.0274 11.9537 11.0831 12.4235 9.32813 13.3242C9.22801 13.3803 9.11473 13.4086 9.00001 13.4062C8.83999 13.4085 8.68398 13.3562 8.55775 13.2578C8.43152 13.1594 8.34262 13.021 8.30574 12.8652C8.26886 12.7095 8.2862 12.5459 8.3549 12.4013C8.4236 12.2568 8.53955 12.14 8.6836 12.0703C10.6425 11.0683 12.8114 10.5462 15.0117 10.5469C17.205 10.5418 19.3674 11.0643 21.3164 12.0703C21.3989 12.1125 21.4723 12.1705 21.5323 12.2411C21.5923 12.3116 21.6377 12.3934 21.6661 12.4816C21.6944 12.5698 21.705 12.6627 21.6973 12.755C21.6895 12.8474 21.6637 12.9372 21.6211 13.0195V13.0195ZM19.8867 16.3359C19.8456 16.4194 19.7883 16.494 19.7182 16.5552C19.6481 16.6164 19.5665 16.663 19.4782 16.6925C19.3899 16.7219 19.2967 16.7335 19.2038 16.7266C19.111 16.7197 19.0205 16.6945 18.9375 16.6523C17.7188 16.0281 16.3692 15.7026 15 15.7026C13.6308 15.7026 12.2812 16.0281 11.0625 16.6523C10.9638 16.7013 10.8561 16.7292 10.7461 16.7344C10.585 16.7395 10.4271 16.6892 10.2987 16.5918C10.1704 16.4943 10.0793 16.3558 10.0409 16.1993C10.0025 16.0428 10.0189 15.8779 10.0876 15.7321C10.1562 15.5863 10.2729 15.4685 10.418 15.3984C11.8368 14.6742 13.407 14.2966 15 14.2966C16.593 14.2966 18.1632 14.6742 19.582 15.3984C19.7456 15.4835 19.8692 15.6295 19.9262 15.8049C19.9832 15.9802 19.969 16.1709 19.8867 16.3359V16.3359ZM18.1523 19.6641C18.065 19.8285 17.9169 19.9523 17.7396 20.0092C17.5623 20.0661 17.3699 20.0516 17.2031 19.9687C16.5226 19.6291 15.7723 19.4525 15.0117 19.4531C14.2419 19.4494 13.4824 19.6302 12.7969 19.9805C12.6976 20.026 12.5897 20.05 12.4805 20.0508C12.3497 20.0504 12.2216 20.0141 12.11 19.9459C11.9984 19.8777 11.9077 19.7802 11.8477 19.6641C11.8058 19.5819 11.7807 19.4923 11.7739 19.4003C11.7672 19.3084 11.7789 19.216 11.8084 19.1287C11.8379 19.0413 11.8845 18.9607 11.9456 18.8917C12.0067 18.8226 12.081 18.7665 12.1641 18.7266C13.0446 18.2737 14.0216 18.0405 15.0117 18.0469C15.9926 18.0438 16.9603 18.2727 17.8359 18.7148C17.9194 18.7559 17.994 18.8132 18.0552 18.8833C18.1164 18.9535 18.163 19.035 18.1925 19.1233C18.2219 19.2116 18.2335 19.3049 18.2266 19.3977C18.2197 19.4905 18.1945 19.5811 18.1523 19.6641V19.6641Z" fill="white"/>
</svg>
