<svg width="50" height="50" viewBox="0 0 50 50" fill="none" xmlns="http://www.w3.org/2000/svg">
<path d="M25.0195 5.07812C21.0794 5.07812 17.2277 6.24652 13.9515 8.43557C10.6754 10.6246 8.12197 13.736 6.61413 17.3762C5.10629 21.0165 4.71177 25.0221 5.48046 28.8866C6.24915 32.751 8.14652 36.3008 10.9326 39.0869C13.7188 41.873 17.2685 43.7704 21.133 44.5391C24.9974 45.3078 29.0031 44.9133 32.6433 43.4054C36.2836 41.8976 39.3949 39.3441 41.584 36.068C43.773 32.7919 44.9414 28.9402 44.9414 25C44.9362 19.718 42.8357 14.6538 39.1007 10.9188C35.3658 7.18386 30.3016 5.0833 25.0195 5.07812V5.07812ZM25.0195 42.5781C21.5429 42.5781 18.1444 41.5472 15.2537 39.6157C12.3629 37.6842 10.1099 34.9388 8.77947 31.7269C7.44902 28.5149 7.10092 24.9805 7.77917 21.5707C8.45743 18.1609 10.1316 15.0287 12.5899 12.5704C15.0483 10.112 18.1804 8.43789 21.5902 7.75963C25 7.08138 28.5344 7.42948 31.7464 8.75993C34.9584 10.0904 37.7037 12.3434 39.6352 15.2341C41.5667 18.1248 42.5977 21.5234 42.5977 25C42.5925 29.6604 40.7389 34.1285 37.4434 37.4239C34.148 40.7193 29.68 42.573 25.0195 42.5781ZM36.0352 21.6992C35.8895 21.9732 35.6427 22.1796 35.3473 22.2744C35.0518 22.3692 34.731 22.3451 34.4531 22.207C31.5282 20.7059 28.2877 19.9229 25 19.9229C21.7123 19.9229 18.4719 20.7059 15.5469 22.207C15.38 22.3005 15.1912 22.3477 15 22.3438C14.7333 22.3476 14.4733 22.2603 14.2629 22.0964C14.0525 21.9324 13.9044 21.7016 13.8429 21.4421C13.7814 21.1825 13.8103 20.9098 13.9248 20.6689C14.0393 20.428 14.2326 20.2334 14.4727 20.1172C17.7375 18.4472 21.3524 17.577 25.0195 17.5781C28.6751 17.5696 32.279 18.4405 35.5274 20.1172C35.6649 20.1874 35.7871 20.2841 35.8871 20.4018C35.9871 20.5194 36.0629 20.6556 36.1101 20.8026C36.1573 20.9497 36.175 21.1045 36.1621 21.2584C36.1492 21.4123 36.1061 21.5621 36.0352 21.6992V21.6992ZM33.1445 27.2266C33.076 27.3657 32.9806 27.4899 32.8637 27.5919C32.7468 27.6939 32.6109 27.7717 32.4637 27.8208C32.3165 27.8698 32.1611 27.8892 32.0064 27.8777C31.8517 27.8662 31.7008 27.8241 31.5625 27.7539C29.5314 26.7135 27.2821 26.1709 25 26.1709C22.718 26.1709 20.4686 26.7135 18.4375 27.7539C18.2731 27.8354 18.0935 27.882 17.9102 27.8906C17.6417 27.8992 17.3785 27.8153 17.1645 27.6529C16.9506 27.4906 16.7989 27.2597 16.7348 26.9989C16.6708 26.738 16.6982 26.4631 16.8126 26.2201C16.927 25.9772 17.1214 25.7808 17.3633 25.6641C19.728 24.457 22.3451 23.8277 25 23.8277C27.6549 23.8277 30.2721 24.457 32.6367 25.6641C32.9093 25.8059 33.1153 26.0492 33.2103 26.3414C33.3053 26.6337 33.2817 26.9515 33.1445 27.2266V27.2266ZM30.2539 32.7734C30.1083 33.0474 29.8615 33.2538 29.566 33.3486C29.2706 33.4435 28.9498 33.4193 28.6719 33.2812C27.5377 32.7151 26.2872 32.4209 25.0195 32.4219C23.7365 32.4156 22.4707 32.717 21.3281 33.3008C21.1626 33.3767 20.9829 33.4166 20.8008 33.418C20.5829 33.4173 20.3693 33.3568 20.1833 33.2432C19.9974 33.1295 19.8461 32.9671 19.7461 32.7734C19.6763 32.6366 19.6345 32.4871 19.6232 32.3339C19.612 32.1806 19.6315 32.0267 19.6807 31.8811C19.7298 31.7355 19.8076 31.6012 19.9094 31.4861C20.0112 31.3711 20.135 31.2775 20.2734 31.2109C21.741 30.4562 23.3693 30.0676 25.0195 30.0781C26.6544 30.073 28.2672 30.4545 29.7266 31.1914C29.8658 31.2599 29.9899 31.3554 30.0919 31.4722C30.194 31.5891 30.2717 31.7251 30.3208 31.8722C30.3698 32.0194 30.3892 32.1748 30.3777 32.3295C30.3662 32.4842 30.3242 32.6351 30.2539 32.7734V32.7734Z" fill="#C6809D"/>
</svg>
